<svg width="93" height="72" viewBox="0 0 93 72" fill="none" xmlns="http://www.w3.org/2000/svg">
<path d="M93 36C93 55.8823 73.3455 72 47.25 72C21.1545 72 0 55.8823 0 36C0 16.1177 21.1545 0 47.25 0C73.3455 0 93 16.1177 93 36Z" fill="#3C3C3C"/>
<path d="M31.0664 53.4336L31.1152 54.6055C31.89 53.694 32.9349 53.2383 34.25 53.2383C35.7279 53.2383 36.7337 53.8047 37.2676 54.9375C37.6191 54.4297 38.0749 54.0195 38.6348 53.707C39.2012 53.3945 39.8685 53.2383 40.6367 53.2383C42.9544 53.2383 44.1328 54.4655 44.1719 56.9199V64H42.3652V57.0273C42.3652 56.2721 42.1927 55.709 41.8477 55.3379C41.5026 54.9603 40.9232 54.7715 40.1094 54.7715C39.4388 54.7715 38.8822 54.9733 38.4395 55.377C37.9967 55.7741 37.7396 56.3112 37.668 56.9883V64H35.8516V57.0762C35.8516 55.5397 35.0996 54.7715 33.5957 54.7715C32.4108 54.7715 31.6003 55.276 31.1641 56.2852V64H29.3574V53.4336H31.0664ZM53.4297 64C53.3255 63.7917 53.2409 63.4206 53.1758 62.8867C52.3359 63.7591 51.3333 64.1953 50.168 64.1953C49.1263 64.1953 48.2702 63.9023 47.5996 63.3164C46.9355 62.724 46.6035 61.9753 46.6035 61.0703C46.6035 59.9701 47.0202 59.1172 47.8535 58.5117C48.6934 57.8997 49.8717 57.5938 51.3887 57.5938H53.1465V56.7637C53.1465 56.1322 52.9577 55.6309 52.5801 55.2598C52.2025 54.8822 51.6458 54.6934 50.9102 54.6934C50.2656 54.6934 49.7253 54.8561 49.2891 55.1816C48.8529 55.5072 48.6348 55.901 48.6348 56.3633H46.8184C46.8184 55.8359 47.0039 55.3281 47.375 54.8398C47.7526 54.3451 48.2604 53.9544 48.8984 53.668C49.543 53.3815 50.2493 53.2383 51.0176 53.2383C52.235 53.2383 53.1888 53.5443 53.8789 54.1562C54.569 54.7617 54.9271 55.5983 54.9531 56.666V61.5293C54.9531 62.4993 55.0768 63.2708 55.3242 63.8438V64H53.4297ZM50.4316 62.623C50.998 62.623 51.5352 62.4766 52.043 62.1836C52.5508 61.8906 52.9186 61.5098 53.1465 61.041V58.873H51.7305C49.5169 58.873 48.4102 59.5208 48.4102 60.8164C48.4102 61.3828 48.599 61.8255 48.9766 62.1445C49.3542 62.4635 49.8392 62.623 50.4316 62.623ZM59.4941 53.4336L59.5527 54.7617C60.36 53.7461 61.4147 53.2383 62.7168 53.2383C64.9499 53.2383 66.0762 54.498 66.0957 57.0176V64H64.2891V57.0078C64.2826 56.2461 64.1068 55.6829 63.7617 55.3184C63.4232 54.9538 62.8926 54.7715 62.1699 54.7715C61.584 54.7715 61.0697 54.9277 60.627 55.2402C60.1842 55.5527 59.8392 55.9629 59.5918 56.4707V64H57.7852V53.4336H59.4941Z" fill="#D37302"/>
<path d="M18.2227 43.2021C17.5 44.2373 16.4893 45.0137 15.1904 45.5312C13.9014 46.0391 12.3975 46.293 10.6787 46.293C8.94043 46.293 7.39746 45.8877 6.0498 45.0771C4.70215 44.2568 3.65723 43.0947 2.91504 41.5908C2.18262 40.0869 1.80664 38.3438 1.78711 36.3613V34.501C1.78711 31.2881 2.53418 28.7979 4.02832 27.0303C5.53223 25.2627 7.6416 24.3789 10.3564 24.3789C12.583 24.3789 14.375 24.9502 15.7324 26.0928C17.0898 27.2256 17.9199 28.8369 18.2227 30.9268H15.4102C14.8828 28.1045 13.2031 26.6934 10.3711 26.6934C8.48633 26.6934 7.05566 27.3574 6.0791 28.6855C5.1123 30.0039 4.62402 31.918 4.61426 34.4277V36.1709C4.61426 38.5635 5.16113 40.4678 6.25488 41.8838C7.34863 43.29 8.82812 43.9932 10.6934 43.9932C11.748 43.9932 12.6709 43.876 13.4619 43.6416C14.2529 43.4072 14.9072 43.0117 15.4248 42.4551V37.665H10.4883V35.3799H18.2227V43.2021ZM32.2852 46C32.1289 45.6875 32.002 45.1309 31.9043 44.3301C30.6445 45.6387 29.1406 46.293 27.3926 46.293C25.8301 46.293 24.5459 45.8535 23.54 44.9746C22.5439 44.0859 22.0459 42.9629 22.0459 41.6055C22.0459 39.9551 22.6709 38.6758 23.9209 37.7676C25.1807 36.8496 26.9482 36.3906 29.2236 36.3906H31.8604V35.1455C31.8604 34.1982 31.5771 33.4463 31.0107 32.8896C30.4443 32.3232 29.6094 32.04 28.5059 32.04C27.5391 32.04 26.7285 32.2842 26.0742 32.7725C25.4199 33.2607 25.0928 33.8516 25.0928 34.5449H22.3682C22.3682 33.7539 22.6465 32.9922 23.2031 32.2598C23.7695 31.5176 24.5312 30.9316 25.4883 30.502C26.4551 30.0723 27.5146 29.8574 28.667 29.8574C30.4932 29.8574 31.9238 30.3164 32.959 31.2344C33.9941 32.1426 34.5312 33.3975 34.5703 34.999V42.2939C34.5703 43.749 34.7559 44.9062 35.127 45.7656V46H32.2852ZM27.7881 43.9346C28.6377 43.9346 29.4434 43.7148 30.2051 43.2754C30.9668 42.8359 31.5186 42.2646 31.8604 41.5615V38.3096H29.7363C26.416 38.3096 24.7559 39.2812 24.7559 41.2246C24.7559 42.0742 25.0391 42.7383 25.6055 43.2168C26.1719 43.6953 26.8994 43.9346 27.7881 43.9346ZM46.4795 32.582C46.0693 32.5137 45.625 32.4795 45.1465 32.4795C43.3691 32.4795 42.1631 33.2363 41.5283 34.75V46H38.8184V30.1504H41.4551L41.499 31.9814C42.3877 30.5654 43.6475 29.8574 45.2783 29.8574C45.8057 29.8574 46.2061 29.9258 46.4795 30.0625V32.582ZM54.4336 42.0303L58.125 30.1504H61.0254L54.6533 48.4463C53.667 51.083 52.0996 52.4014 49.9512 52.4014L49.4385 52.3574L48.4277 52.167V49.9697L49.1602 50.0283C50.0781 50.0283 50.791 49.8428 51.2988 49.4717C51.8164 49.1006 52.2412 48.4219 52.5732 47.4355L53.1738 45.8242L47.5195 30.1504H50.4785L54.4336 42.0303ZM72.6855 41.7959C72.6855 41.0635 72.4072 40.4971 71.8506 40.0967C71.3037 39.6865 70.3418 39.335 68.9648 39.042C67.5977 38.749 66.5088 38.3975 65.6982 37.9873C64.8975 37.5771 64.3018 37.0889 63.9111 36.5225C63.5303 35.9561 63.3398 35.2822 63.3398 34.501C63.3398 33.2021 63.8867 32.1035 64.9805 31.2051C66.084 30.3066 67.4902 29.8574 69.1992 29.8574C70.9961 29.8574 72.4512 30.3213 73.5645 31.249C74.6875 32.1768 75.249 33.3633 75.249 34.8086H72.5244C72.5244 34.0664 72.207 33.4268 71.5723 32.8896C70.9473 32.3525 70.1562 32.084 69.1992 32.084C68.2129 32.084 67.4414 32.2988 66.8848 32.7285C66.3281 33.1582 66.0498 33.7197 66.0498 34.4131C66.0498 35.0674 66.3086 35.5605 66.8262 35.8926C67.3438 36.2246 68.2764 36.542 69.624 36.8447C70.9814 37.1475 72.0801 37.5088 72.9199 37.9287C73.7598 38.3486 74.3799 38.8564 74.7803 39.4521C75.1904 40.0381 75.3955 40.7559 75.3955 41.6055C75.3955 43.0215 74.8291 44.1592 73.6963 45.0186C72.5635 45.8682 71.0938 46.293 69.2871 46.293C68.0176 46.293 66.8945 46.0684 65.918 45.6191C64.9414 45.1699 64.1748 44.5449 63.6182 43.7441C63.0713 42.9336 62.7979 42.0596 62.7979 41.1221H65.5078C65.5566 42.0303 65.918 42.7529 66.5918 43.29C67.2754 43.8174 68.1738 44.0811 69.2871 44.0811C70.3125 44.0811 71.1328 43.876 71.748 43.4658C72.373 43.0459 72.6855 42.4893 72.6855 41.7959ZM88.1543 41.7959C88.1543 41.0635 87.876 40.4971 87.3193 40.0967C86.7725 39.6865 85.8105 39.335 84.4336 39.042C83.0664 38.749 81.9775 38.3975 81.167 37.9873C80.3662 37.5771 79.7705 37.0889 79.3799 36.5225C78.999 35.9561 78.8086 35.2822 78.8086 34.501C78.8086 33.2021 79.3555 32.1035 80.4492 31.2051C81.5527 30.3066 82.959 29.8574 84.668 29.8574C86.4648 29.8574 87.9199 30.3213 89.0332 31.249C90.1562 32.1768 90.7178 33.3633 90.7178 34.8086H87.9932C87.9932 34.0664 87.6758 33.4268 87.041 32.8896C86.416 32.3525 85.625 32.084 84.668 32.084C83.6816 32.084 82.9102 32.2988 82.3535 32.7285C81.7969 33.1582 81.5186 33.7197 81.5186 34.4131C81.5186 35.0674 81.7773 35.5605 82.2949 35.8926C82.8125 36.2246 83.7451 36.542 85.0928 36.8447C86.4502 37.1475 87.5488 37.5088 88.3887 37.9287C89.2285 38.3486 89.8486 38.8564 90.249 39.4521C90.6592 40.0381 90.8643 40.7559 90.8643 41.6055C90.8643 43.0215 90.2979 44.1592 89.165 45.0186C88.0322 45.8682 86.5625 46.293 84.7559 46.293C83.4863 46.293 82.3633 46.0684 81.3867 45.6191C80.4102 45.1699 79.6436 44.5449 79.0869 43.7441C78.54 42.9336 78.2666 42.0596 78.2666 41.1221H80.9766C81.0254 42.0303 81.3867 42.7529 82.0605 43.29C82.7441 43.8174 83.6426 44.0811 84.7559 44.0811C85.7812 44.0811 86.6016 43.876 87.2168 43.4658C87.8418 43.0459 88.1543 42.4893 88.1543 41.7959Z" fill="#D37302"/>
<path d="M32.9277 18.6289C32.9277 17.0078 33.3118 15.7057 34.0801 14.7227C34.8483 13.7331 35.8542 13.2383 37.0977 13.2383C38.3346 13.2383 39.3145 13.6615 40.0371 14.5078V9H41.8438V24H40.1836L40.0957 22.8672C39.373 23.7526 38.3672 24.1953 37.0781 24.1953C35.8542 24.1953 34.8548 23.694 34.0801 22.6914C33.3118 21.6888 32.9277 20.3802 32.9277 18.7656V18.6289ZM34.7344 18.834C34.7344 20.0319 34.9818 20.9694 35.4766 21.6465C35.9714 22.3236 36.6549 22.6621 37.5273 22.6621C38.6732 22.6621 39.5098 22.1478 40.0371 21.1191V16.2656C39.4967 15.2695 38.6667 14.7715 37.5469 14.7715C36.6615 14.7715 35.9714 15.1133 35.4766 15.7969C34.9818 16.4805 34.7344 17.4928 34.7344 18.834ZM49.041 24.1953C47.6087 24.1953 46.4434 23.7266 45.5449 22.7891C44.6465 21.8451 44.1973 20.5853 44.1973 19.0098V18.6777C44.1973 17.6296 44.3958 16.6953 44.793 15.875C45.1966 15.0482 45.7565 14.4036 46.4727 13.9414C47.1953 13.4727 47.9766 13.2383 48.8164 13.2383C50.1901 13.2383 51.2578 13.6908 52.0195 14.5957C52.7812 15.5007 53.1621 16.7962 53.1621 18.4824V19.2344H46.0039C46.0299 20.276 46.3327 21.1191 46.9121 21.7637C47.498 22.4017 48.2402 22.7207 49.1387 22.7207C49.7767 22.7207 50.3171 22.5905 50.7598 22.3301C51.2025 22.0697 51.5898 21.7246 51.9219 21.2949L53.0254 22.1543C52.14 23.515 50.8118 24.1953 49.041 24.1953ZM48.8164 14.7227C48.0872 14.7227 47.4753 14.9896 46.9805 15.5234C46.4857 16.0508 46.1797 16.793 46.0625 17.75H51.3555V17.6133C51.3034 16.6953 51.056 15.9857 50.6133 15.4844C50.1706 14.9766 49.5716 14.7227 48.8164 14.7227ZM58.6113 21.5488L61.2285 13.4336H63.0742L59.2852 24H57.9082L54.0801 13.4336H55.9258L58.6113 21.5488Z" fill="#D37302"/>
</svg>
