<svg width="26" height="26" viewBox="0 0 26 26" fill="none" xmlns="http://www.w3.org/2000/svg">
<path fill-rule="evenodd" clip-rule="evenodd" d="M7.62 11.79C9.06 14.62 11.38 16.93 14.21 18.38L16.41 16.18C16.68 15.91 17.08 15.82 17.43 15.94C18.55 16.31 19.76 16.51 21 16.51C21.55 16.51 22 16.96 22 17.51V21C22 21.55 21.55 22 21 22C11.61 22 4 14.39 4 5C4 4.45 4.45 4 5 4H8.5C9.05 4 9.5 4.45 9.5 5C9.5 6.25 9.7 7.45 10.07 8.57C10.18 8.92 10.1 9.31 9.82 9.59L7.62 11.79Z" fill="white" fill-opacity="0.5"/>
<path d="M0 0H26V26H0V0Z" fill="white" fill-opacity="0.5"/>
</svg>
