<svg width="594" height="594" viewBox="0 0 594 594" fill="none" xmlns="http://www.w3.org/2000/svg">
<g clip-path="url(#clip0_1025_15)">
<path d="M259.237 95.3799L138.106 74.0212C132.318 72.9818 126.381 73.0959 120.637 74.3569C114.893 75.6178 109.454 78.0008 104.634 81.3691C99.8131 84.7374 95.7051 89.0246 92.5456 93.9846C89.3862 98.9447 87.2374 104.48 86.2227 110.272L64.8761 231.335C63.4928 239.276 65.2965 247.442 69.8959 254.062L269.178 538.752C276.003 548.466 286.401 555.079 298.094 557.141C309.786 559.203 321.819 556.545 331.555 549.751L467.095 454.845C476.811 448.023 483.424 437.626 485.486 425.934C487.548 414.243 484.888 402.211 478.092 392.477L278.877 107.87C274.231 101.282 267.173 96.7939 259.237 95.3799V95.3799ZM203.372 183.01C202.273 189.243 199.35 195.01 194.973 199.582C190.597 204.154 184.963 207.325 178.784 208.695C172.605 210.065 166.159 209.572 160.26 207.278C154.361 204.984 149.275 200.992 145.645 195.808C142.015 190.624 140.004 184.479 139.865 178.152C139.727 171.824 141.469 165.598 144.869 160.26C148.27 154.922 153.177 150.713 158.97 148.164C164.763 145.615 171.182 144.841 177.415 145.94C185.773 147.413 193.203 152.147 198.071 159.099C202.939 166.051 204.845 174.652 203.372 183.01Z" fill="#1AA090"/>
<path d="M149.592 27.3061C148.856 31.4851 149.809 35.7857 152.243 39.2617C154.677 42.7378 158.392 45.1045 162.571 45.8414L288.006 67.959L499.98 370.677C501.16 372.457 502.684 373.983 504.463 375.165C506.241 376.347 508.239 377.16 510.337 377.558C512.435 377.956 514.592 377.93 516.68 377.481C518.768 377.032 520.745 376.17 522.494 374.945C524.244 373.72 525.73 372.157 526.866 370.348C528.002 368.54 528.764 366.522 529.108 364.415C529.452 362.307 529.37 360.152 528.868 358.076C528.366 356 527.453 354.046 526.184 352.328L313.66 48.813C311.387 45.5821 308.494 42.8348 305.151 40.7305C301.807 38.6262 298.079 37.2068 294.183 36.5545L168.128 14.3276C163.949 13.5907 159.648 14.5441 156.172 16.9781C152.696 19.412 150.329 23.1271 149.592 27.3061V27.3061Z" fill="#1AA090"/>
</g>
<defs>
<clipPath id="clip0_1025_15">
<rect width="512" height="512" fill="white" transform="translate(0.435211 504.657) rotate(-80)"/>
</clipPath>
</defs>
</svg>
