<svg width="256" height="256" viewBox="0 0 256 256" fill="none" xmlns="http://www.w3.org/2000/svg">
<path d="M145.231 166.926L213.405 235.099" stroke="#1AA090" stroke-width="16"/>
<path d="M167.43 144.727L235.604 212.901" stroke="#1AA090" stroke-width="16"/>
<path d="M235.604 212.901C238.547 215.844 240.201 219.837 240.201 224C240.201 228.163 238.547 232.156 235.604 235.099" stroke="#1AA090" stroke-width="16" stroke-linecap="round" stroke-linejoin="round"/>
<path d="M213.405 235.099C216.349 238.043 220.342 239.697 224.505 239.697C228.668 239.697 232.66 238.043 235.604 235.099" stroke="#1AA090" stroke-width="16" stroke-linecap="round" stroke-linejoin="round"/>
<path d="M86.4842 15.3443C95.7602 15.3443 104.945 17.1713 113.515 20.7211C122.085 24.2708 129.872 29.4738 136.431 36.0329C142.99 42.5921 148.193 50.3789 151.743 58.9488C155.293 67.5187 157.12 76.7038 157.12 85.9798C157.12 95.2558 155.293 104.441 151.743 113.011C148.193 121.581 142.99 129.368 136.431 135.927C129.872 142.486 122.085 147.689 113.515 151.239C104.945 154.788 95.7602 156.615 86.4842 156.615C67.7505 156.615 49.784 149.173 36.5373 135.927C23.2906 122.68 15.8486 104.714 15.8486 85.9798C15.8486 76.7038 17.6757 67.5187 21.2254 58.9488C24.7752 50.3789 29.9782 42.5921 36.5373 36.0329C43.0964 29.4738 50.8832 24.2708 59.4531 20.7211C68.023 17.1713 77.2082 15.3443 86.4842 15.3443Z" stroke="#1AA090" stroke-width="16" stroke-linecap="round" stroke-linejoin="round"/>
<path d="M145.231 166.926L167.43 144.727" stroke="#1AA090" stroke-width="16" stroke-linecap="round" stroke-linejoin="round"/>
<path d="M156.331 155.827L136.431 135.927" stroke="#1AA090" stroke-width="16" stroke-linecap="round" stroke-linejoin="round"/>
<path d="M164.179 185.874L186.378 163.675" stroke="#1AA090" stroke-width="16" stroke-linecap="round" stroke-linejoin="round"/>
<path d="M86.4844 46.7378C96.892 46.7378 106.873 50.8722 114.233 58.2315C121.592 65.5908 125.726 75.5721 125.726 85.9797" stroke="#1AA090" stroke-width="16" stroke-linecap="round" stroke-linejoin="round"/>
</svg>
